# xmcd
#
# Track frame offsets:
#	150
#	11554
#	24902
#	36134
#	45241
#	56854
#	67841
#	78794
#	91772
#	102677
#
# Disc length: 1546 seconds
#
# Revision: 0
# Processed by: cddbd v1.5.1PL0 Copyright (c) Steve Scherf et al.
# Submitted via: EasyCDDAExtractor 8.0.2.1
#
DISCID=6c06080a
DTITLE=Danny Davis - Caribbean Cruise
DYEAR=1990
DGENRE=AlternRock
TTITLE0=Marianne
TTITLE1=Jamacia Farewell
TTITLE2=I Can See Clearly Now
TTITLE3=Mama Don't Want No Peas An' Rice An' Coconut Oil
TTITLE4=La Fiesta
TTITLE5=Caribbean
TTITLE6=Banana Boat Song
TTITLE7=Yellow Bird
TTITLE8=Matilda, Matilda
TTITLE9=Jamacian Sunset
EXTD=
EXTT0=
EXTT1=
EXTT2=
EXTT3=
EXTT4=
EXTT5=
EXTT6=
EXTT7=
EXTT8=
EXTT9=
PLAYORDER=
